<?xml version="1.0" encoding="utf-8"?>
<!-- Generator: Adobe Illustrator 16.0.0, SVG Export Plug-In . SVG Version: 6.00 Build 0)  -->
<!DOCTYPE svg PUBLIC "-//W3C//DTD SVG 1.1//EN" "http://www.w3.org/Graphics/SVG/1.1/DTD/svg11.dtd">
<svg version="1.1" id="Ebene_2" xmlns="http://www.w3.org/2000/svg" xmlns:xlink="http://www.w3.org/1999/xlink" x="0px" y="0px"
	 width="287.5px" height="287.098px" viewBox="0 0 287.5 287.098" enable-background="new 0 0 287.5 287.098" xml:space="preserve">
<g>
	<g>
		<g>
			<path d="M276,0H11C4.925,0,0,4.925,0,11v265c0,6.075,4.925,11,11,11h265c6.075,0,11-4.925,11-11V11C287,4.925,282.075,0,276,0z
				 M276,44.125h-33.125V77.25H276v33.125h-33.125V143.5H276v33.125h-33.125v33.125H276v33.125h-33.125V276H209.75v-33.125h-33.125
				V276H143.5v-33.125h-33.125V276H77.25v-33.125H44.125V276H11v-33.125h33.125V209.75H11v-33.125h33.125V143.5H11v-33.125h33.125
				V77.25H11V44.125h33.125V11H77.25v33.125h33.125V11H143.5v33.125h33.125V11h33.125v33.125h33.125V11H276V44.125z M269,126.25
				c0,5.108-4.143,9.25-9.25,9.25s-9.25-4.142-9.25-9.25c0-5.107,4.143-9.25,9.25-9.25S269,121.142,269,126.25z"/>
		</g>
	</g>
	<g>
		<g>
			<rect x="44.125" y="44.125" width="33.125" height="33.125"/>
		</g>
	</g>
	<g>
		<g>
			<rect x="77.25" y="77.25" width="33.125" height="33.125"/>
		</g>
	</g>
	<g>
		<g>
			<rect x="110.375" y="110.375" width="33.125" height="33.125"/>
		</g>
	</g>
	<g>
		<g>
			<rect x="143.5" y="143.5" width="33.125" height="33.125"/>
		</g>
	</g>
	<g>
		<g>
			<rect x="176.625" y="176.625" width="33.125" height="33.125"/>
		</g>
	</g>
	<g>
		<g>
			<path d="M209.75,242.875h33.125V209.75H209.75V242.875z M225.75,217c5.107,0,9.25,4.143,9.25,9.25c0,5.108-4.143,9.25-9.25,9.25
				s-9.25-4.142-9.25-9.25C216.5,221.142,220.643,217,225.75,217z"/>
		</g>
	</g>
	<g>
		<g>
			<rect x="44.125" y="110.375" width="33.125" height="33.125"/>
		</g>
	</g>
	<g>
		<g>
			<path d="M110.375,143.5H77.25v33.125h33.125V143.5z M93.75,169c-5.108,0-9.25-4.142-9.25-9.25c0-5.107,4.142-9.25,9.25-9.25
				s9.25,4.143,9.25,9.25C103,164.858,98.858,169,93.75,169z"/>
		</g>
	</g>
	<g>
		<g>
			<rect x="110.375" y="176.625" width="33.125" height="33.125"/>
		</g>
	</g>
	<g>
		<g>
			<rect x="143.5" y="209.75" width="33.125" height="33.125"/>
		</g>
	</g>
	<g>
		<g>
			<rect x="44.125" y="176.625" width="33.125" height="33.125"/>
		</g>
	</g>
	<g>
		<g>
			<rect x="77.25" y="209.75" width="33.125" height="33.125"/>
		</g>
	</g>
	<g>
		<g>
			<path d="M143.5,77.25V44.125h-33.125V77.25H143.5z M126.75,52.5c5.108,0,9.25,4.143,9.25,9.25c0,5.108-4.142,9.25-9.25,9.25
				s-9.25-4.142-9.25-9.25C117.5,56.642,121.642,52.5,126.75,52.5z"/>
		</g>
	</g>
	<g>
		<g>
			<rect x="143.5" y="77.25" width="33.125" height="33.125"/>
		</g>
	</g>
	<g>
		<g>
			<rect x="176.625" y="110.375" width="33.125" height="33.125"/>
		</g>
	</g>
	<g>
		<g>
			<rect x="209.75" y="143.5" width="33.125" height="33.125"/>
		</g>
	</g>
	<g>
		<g>
			<rect x="176.625" y="44.125" width="33.125" height="33.125"/>
		</g>
	</g>
	<g>
		<g>
			<rect x="209.75" y="77.25" width="33.125" height="33.125"/>
		</g>
	</g>
	<g>
		<g>
			<circle cx="60.75" cy="27.75" r="9.25"/>
		</g>
	</g>
	<g>
		<g>
			<circle cx="26.75" cy="193.75" r="9.25"/>
		</g>
	</g>
	<g>
		<g>
			<circle cx="159.75" cy="260.75" r="9.25"/>
		</g>
	</g>
	<g>
		<g>
			<circle cx="194.75" cy="94.75" r="9.25"/>
		</g>
	</g>
</g>
</svg>
