
<svg version="1.1" id="Ebene_1" xmlns="http://www.w3.org/2000/svg" xmlns:xlink="http://www.w3.org/1999/xlink" x="0px" y="0px"
	 width="595.279px" height="841.891px" viewBox="0 0 595.279 841.891" enable-background="new 0 0 595.279 841.891"
	 xml:space="preserve">
<path d="M342.119,79.165c-58.492-4.012-114.192,15.686-156.856,55.51c-40.354,37.669-64.201,90.286-66.082,145.284l-50.658,74.523
	c-6.602,9.715-9.667,21.073-8.87,32.866c1.852,27.187,25.211,48.479,53.183,48.479h6.221v29.764
	c0,49.236,40.057,89.292,89.292,89.292h71.803l16.436,61.35l204.134-54.694l-6.357-23.692
	c-13.608-50.789-7.036-106.162,18.513-155.909c16.966-33.032,24.74-70.285,22.49-107.728
	C529.12,170.171,446.037,86.326,342.119,79.165z M473.158,361.542c-27.389,53.331-36.509,112.329-26.329,168.221l-40.574,10.869
	c6.667-13.673,10.44-29.067,10.44-45.276c0-30.229-12.941-57.695-33.907-76.113c-9.149,6.358-19.346,11.305-30.329,14.645
	c7.488,4.262,14.001,10.019,19.316,16.822h-67.838c-9.334,7.203-16.167,17.668-19.28,29.764H385.39
	c0.977,4.816,1.542,9.781,1.542,14.883c0,24.156-11.489,45.795-29.579,58.373l-29.192,7.822l-13.752-51.313h-44.973
	c-1-4.876-1.56-9.846-1.56-14.882c0-32.378,20.626-60.267,50.164-67.82l26.103-6.674c42.718-10.917,72.553-50.658,72.553-96.649
	c0-30.228-12.941-57.694-33.907-76.112c-9.155,6.357-19.353,11.304-30.335,14.638c7.488,4.262,14.001,10.019,19.322,16.829h-67.838
	c-9.334,7.203-16.167,17.668-19.28,29.764H385.39c0.977,4.816,1.542,9.78,1.542,14.882c0,32.377-20.626,60.266-50.164,67.82
	l-26.104,6.673c-42.717,10.918-72.552,50.658-72.552,96.65c0,5.006,0.41,9.971,1.119,14.882h-30.884
	c-24.62,0-44.646-20.025-44.646-44.646v-74.41h-50.867c-4.429,0-8.388-3.143-8.644-6.864c-0.119-1.75,0.304-3.345,1.25-4.738
	l58.261-85.703v-6.87c0-45.872,18.478-88.375,52.027-119.693c7.065-6.596,14.614-12.459,22.52-17.626
	c-0.036,1.125-0.137,2.25-0.137,3.381c0,30.229,12.941,57.695,33.906,76.113c9.156-6.358,19.353-11.305,30.336-14.638
	c-7.488-4.262-14.001-10.019-19.323-16.829h67.838c9.334-7.203,16.168-17.668,19.281-29.764H269.418
	c-0.977-4.816-1.542-9.781-1.542-14.882c0-6.703,0.94-13.292,2.702-19.668c17.942-6.631,37.051-10.102,56.719-10.102
	c3.898,0,7.815,0.137,11.75,0.405c15.787,1.089,30.943,4.453,45.188,9.721c1.756,6.375,2.696,12.953,2.696,19.644
	c0,32.383-20.626,60.272-50.164,67.82l-26.098,6.673c-42.723,10.911-72.558,50.658-72.558,96.649
	c0,30.229,12.941,57.695,33.906,76.112c9.149-6.357,19.347-11.304,30.33-14.644c-7.488-4.262-14.001-10.019-19.317-16.823h67.838
	c9.334-7.203,16.168-17.668,19.281-29.764H269.418c-0.977-4.816-1.542-9.781-1.542-14.882c0-32.383,20.626-60.272,50.164-67.82
	l26.097-6.673c42.724-10.912,72.559-50.658,72.559-96.65c0-1.131-0.101-2.256-0.137-3.381c1.69,1.102,3.375,2.221,5.024,3.381
	c3.327,2.346,6.548,4.84,9.691,7.423c34.109,28.056,56.718,69.612,59.521,116.389C492.571,306.342,486.469,335.618,473.158,361.542z
	"/>
</svg>
