<?xml version="1.0" encoding="utf-8"?>
<!-- Generator: Adobe Illustrator 16.0.0, SVG Export Plug-In . SVG Version: 6.00 Build 0)  -->
<!DOCTYPE svg PUBLIC "-//W3C//DTD SVG 1.1//EN" "http://www.w3.org/Graphics/SVG/1.1/DTD/svg11.dtd">
<svg version="1.1" id="Ebene_1" xmlns="http://www.w3.org/2000/svg" xmlns:xlink="http://www.w3.org/1999/xlink" x="0px" y="0px"
	 width="595.279px" height="841.891px" viewBox="0 0 595.279 841.891" enable-background="new 0 0 595.279 841.891"
	 xml:space="preserve">
<g>
	<path d="M166.678,356.06l-29.764,66.671l-80.958,19.05c-8.334,2.381-13.096,9.524-10.715,17.858
		c1.19,7.143,8.334,11.905,14.286,11.905c1.191,0,2.382,0,3.572,0l88.102-21.43c4.762-1.191,8.334-4.763,9.524-8.334l29.764-65.481
		l63.1-11.905l-61.909,41.67c-3.571,2.381-5.952,7.143-5.952,11.905l-5.953,101.197l-34.526,63.1
		c-3.571,7.144-1.19,16.668,5.953,20.24c2.381,1.19,4.762,2.381,7.144,2.381c4.762,0,10.715-2.381,13.096-7.144l35.717-65.48
		c1.19-2.381,1.19-3.572,2.381-5.953l4.763-97.626l67.861-46.432c3.572-2.381,5.953-7.144,5.953-11.906v-41.669
		c0-5.953-3.571-11.906-9.524-14.287l-55.956-19.049l-42.86-57.147l-25.002-71.434c-2.381-7.143-11.905-11.905-19.049-8.334
		c-7.144,2.381-11.905,11.906-8.334,19.049l26.192,70.243c0,1.19,1.19,2.381,2.381,3.571l46.433,63.1
		c2.381,2.381,4.762,4.763,7.143,4.763l42.86,14.287l-75.005,13.096C172.631,347.726,167.869,351.297,166.678,356.06z"/>
	<path d="M392.885,313.199l47.622-61.909c1.19-1.19,1.19-2.381,2.381-3.571l26.192-70.243c2.382-7.144-1.19-16.668-8.334-19.049
		c-7.143-2.381-16.668,1.191-19.049,8.334l-25.002,69.053l-42.859,57.147l-57.147,17.858c-5.953,2.381-9.524,7.143-9.524,14.287
		v41.669c0,4.762,2.381,9.524,5.953,11.906l67.861,46.432l4.763,97.626c0,2.381,1.19,4.762,2.381,5.952l35.717,65.481
		c2.382,4.762,8.334,7.143,13.097,7.143c2.381,0,4.762,0,7.143-2.381c7.144-3.571,9.525-13.096,5.953-20.239l-34.526-63.1
		l-5.952-97.626c0-4.763-2.382-8.334-5.953-11.905l-61.909-42.86l63.1,11.905l29.764,65.48c2.382,4.763,5.953,7.144,9.524,8.334
		l88.102,21.431c1.191,0,2.382,0,3.572,0c7.144,0,13.096-4.763,14.286-11.906c2.382-8.333-2.381-15.477-10.715-17.858
		l-80.958-20.239l-29.764-64.29c-2.382-4.762-5.953-7.144-10.715-8.334l-73.815-13.096l42.86-14.287
		C389.313,317.961,391.695,316.771,392.885,313.199z"/>
	<path d="M297.64,567.979c41.67,0,66.671-59.528,66.671-102.389c0-44.051-26.191-72.624-66.671-72.624
		c-40.479,0-66.671,28.573-66.671,72.624C230.969,507.261,255.971,567.979,297.64,567.979z M297.64,422.73
		c23.812,0,36.907,15.478,36.907,42.86c0,35.717-21.43,72.624-36.907,72.624s-36.907-36.907-36.907-72.624
		C260.733,437.018,273.829,422.73,297.64,422.73z"/>
	<path d="M413.124,89.374c-8.334-2.381-16.668,2.381-19.049,9.524c0,0-14.287,45.241-75.006,70.243
		c-5.952-1.19-13.096-2.381-21.43-2.381s-15.478,1.191-22.62,2.381c-59.528-23.812-75.006-67.862-75.006-70.243
		c-2.381-8.334-10.715-11.906-19.049-9.524c-8.334,2.381-11.905,10.715-9.524,19.049c1.19,2.381,15.478,48.813,72.624,79.768
		c-9.524,10.715-14.286,26.192-14.286,45.241c0,42.86,25.001,66.671,66.671,66.671s66.671-25.001,66.671-66.671
		c0-19.049-4.762-34.526-14.286-45.241c57.146-30.955,72.624-77.386,72.624-79.768C426.22,100.089,421.458,91.755,413.124,89.374z
		 M297.64,270.339c-26.192,0-36.907-10.715-36.907-36.908s10.715-36.907,36.907-36.907s36.907,10.715,36.907,36.907
		S323.832,270.339,297.64,270.339z"/>
</g>
</svg>
