<svg version="1.1" id="Ebene_2" xmlns="http://www.w3.org/2000/svg" xmlns:xlink="http://www.w3.org/1999/xlink" x="0px" y="0px"
	 width="287.5px" height="287.098px" viewBox="0 0 287.5 287.098" enable-background="new 0 0 287.5 287.098" xml:space="preserve">
<g>
	<g>
		<g>
			<path fill-rule="evenodd" clip-rule="evenodd" fill="#1D1D1B" d="M276.5,0.5h-265c-6.075,0-11,4.925-11,11v265
				c0,6.075,4.925,11,11,11h265c6.075,0,11-4.925,11-11v-265C287.5,5.425,282.575,0.5,276.5,0.5z M276.5,44.625h-33.125V77.75H276.5
				v33.125h-33.125V144H276.5v33.125h-33.125v33.125H276.5v33.125h-33.125V276.5H210.25v-33.125h-33.125V276.5H144v-33.125h-33.125
				V276.5H77.75v-33.125H44.625V276.5H11.5v-33.125h33.125V210.25H11.5v-33.125h33.125V144H11.5v-33.125h33.125V77.75H11.5V44.625
				h33.125V11.5H77.75v33.125h33.125V11.5H144v33.125h33.125V11.5h33.125v33.125h33.125V11.5H276.5V44.625z"/>
		</g>
	</g>
	<g>
		<g>
			<rect x="44.625" y="44.625" fill-rule="evenodd" clip-rule="evenodd" fill="#1D1D1B" width="33.125" height="33.125"/>
		</g>
	</g>
	<g>
		<g>
			<rect x="77.75" y="77.75" fill-rule="evenodd" clip-rule="evenodd" fill="#1D1D1B" width="33.125" height="33.125"/>
		</g>
	</g>
	<g>
		<g>
			<rect x="110.875" y="110.875" fill-rule="evenodd" clip-rule="evenodd" fill="#1D1D1B" width="33.125" height="33.125"/>
		</g>
	</g>
	<g>
		<g>
			<rect x="144" y="144" fill-rule="evenodd" clip-rule="evenodd" fill="#1D1D1B" width="33.125" height="33.125"/>
		</g>
	</g>
	<g>
		<g>
			<rect x="177.125" y="177.125" fill-rule="evenodd" clip-rule="evenodd" fill="#1D1D1B" width="33.125" height="33.125"/>
		</g>
	</g>
	<g>
		<g>
			<rect x="210.25" y="210.25" fill-rule="evenodd" clip-rule="evenodd" fill="#1D1D1B" width="33.125" height="33.125"/>
		</g>
	</g>
	<g>
		<g>
			<rect x="44.625" y="110.875" fill-rule="evenodd" clip-rule="evenodd" fill="#1D1D1B" width="33.125" height="33.125"/>
		</g>
	</g>
	<g>
		<g>
			<rect x="77.75" y="144" fill-rule="evenodd" clip-rule="evenodd" fill="#1D1D1B" width="33.125" height="33.125"/>
		</g>
	</g>
	<g>
		<g>
			<rect x="110.875" y="177.125" fill-rule="evenodd" clip-rule="evenodd" fill="#1D1D1B" width="33.125" height="33.125"/>
		</g>
	</g>
	<g>
		<g>
			<rect x="144" y="210.25" fill-rule="evenodd" clip-rule="evenodd" fill="#1D1D1B" width="33.125" height="33.125"/>
		</g>
	</g>
	<g>
		<g>
			<rect x="44.625" y="177.125" fill-rule="evenodd" clip-rule="evenodd" fill="#1D1D1B" width="33.125" height="33.125"/>
		</g>
	</g>
	<g>
		<g>
			<rect x="77.75" y="210.25" fill-rule="evenodd" clip-rule="evenodd" fill="#1D1D1B" width="33.125" height="33.125"/>
		</g>
	</g>
	<g>
		<g>
			<rect x="110.875" y="44.625" fill-rule="evenodd" clip-rule="evenodd" fill="#1D1D1B" width="33.125" height="33.125"/>
		</g>
	</g>
	<g>
		<g>
			<rect x="144" y="77.75" fill-rule="evenodd" clip-rule="evenodd" fill="#1D1D1B" width="33.125" height="33.125"/>
		</g>
	</g>
	<g>
		<g>
			<rect x="177.125" y="110.875" fill-rule="evenodd" clip-rule="evenodd" fill="#1D1D1B" width="33.125" height="33.125"/>
		</g>
	</g>
	<g>
		<g>
			<rect x="210.25" y="144" fill-rule="evenodd" clip-rule="evenodd" fill="#1D1D1B" width="33.125" height="33.125"/>
		</g>
	</g>
	<g>
		<g>
			<rect x="177.125" y="44.625" fill-rule="evenodd" clip-rule="evenodd" fill="#1D1D1B" width="33.125" height="33.125"/>
		</g>
	</g>
	<g>
		<g>
			<rect x="210.25" y="77.75" fill-rule="evenodd" clip-rule="evenodd" fill="#1D1D1B" width="33.125" height="33.125"/>
		</g>
	</g>
</g>
</svg>
