<?xml version="1.0" encoding="utf-8"?>
<!-- Generator: Adobe Illustrator 16.0.0, SVG Export Plug-In . SVG Version: 6.00 Build 0)  -->
<!DOCTYPE svg PUBLIC "-//W3C//DTD SVG 1.1//EN" "http://www.w3.org/Graphics/SVG/1.1/DTD/svg11.dtd">
<svg version="1.1" id="Ebene_1" xmlns="http://www.w3.org/2000/svg" xmlns:xlink="http://www.w3.org/1999/xlink" x="0px" y="0px"
	 width="287.5px" height="287.097px" viewBox="0 0 287.5 287.097" enable-background="new 0 0 287.5 287.097" xml:space="preserve">
<g>
	<g>
		<g>
			<path fill-rule="evenodd" clip-rule="evenodd" d="M276,0.274H11c-6.075,0-11,4.925-11,11v265c0,6.075,4.925,11,11,11h265
				c6.075,0,11-4.925,11-11v-265C287,5.199,282.075,0.274,276,0.274z M160,22.274c2.762,0,5,2.238,5,5s-2.238,5-5,5s-5-2.238-5-5
				S157.238,22.274,160,22.274z M276,44.399h-33.125v33.125H276v33.125h-33.125v33.125H276v33.125h-33.125v33.125H276v33.125
				h-33.125v33.125H209.75v-33.125h-33.125v33.125H143.5v-33.125h-33.125v33.125H77.25v-33.125H44.125v33.125H11v-33.125h33.125
				v-33.125H11v-33.125h33.125v-33.125H11v-33.125h33.125V77.524H11V44.399h33.125V11.274H77.25v33.125h33.125V11.274H143.5v33.125
				h33.125V11.274h33.125v33.125h33.125V11.274H276V44.399z M267,127.274c0,2.762-2.238,5-5,5s-5-2.238-5-5s2.238-5,5-5
				S267,124.513,267,127.274z"/>
		</g>
	</g>
	<g>
		<g>
			<rect x="44.125" y="44.399" fill-rule="evenodd" clip-rule="evenodd" width="33.125" height="33.125"/>
		</g>
	</g>
	<g>
		<g>
			<rect x="77.25" y="77.524" fill-rule="evenodd" clip-rule="evenodd" width="33.125" height="33.125"/>
		</g>
	</g>
	<g>
		<g>
			<path fill-rule="evenodd" clip-rule="evenodd" d="M143.5,110.649h-33.125v33.125H143.5V110.649z M127,132.274
				c-2.762,0-5-2.238-5-5s2.238-5,5-5s5,2.238,5,5S129.762,132.274,127,132.274z"/>
		</g>
	</g>
	<g>
		<g>
			<path fill-rule="evenodd" clip-rule="evenodd" d="M143.5,176.899h33.125v-33.125H143.5V176.899z M160,156.274
				c2.762,0,5,2.238,5,5s-2.238,5-5,5s-5-2.238-5-5S157.238,156.274,160,156.274z"/>
		</g>
	</g>
	<g>
		<g>
			<rect x="176.625" y="176.899" fill-rule="evenodd" clip-rule="evenodd" width="33.125" height="33.125"/>
		</g>
	</g>
	<g>
		<g>
			<rect x="209.75" y="210.024" fill-rule="evenodd" clip-rule="evenodd" width="33.125" height="33.125"/>
		</g>
	</g>
	<g>
		<g>
			<path fill-rule="evenodd" clip-rule="evenodd" d="M77.25,110.649H44.125v33.125H77.25V110.649z M60,132.274c-2.762,0-5-2.238-5-5
				s2.238-5,5-5s5,2.238,5,5S62.762,132.274,60,132.274z"/>
		</g>
	</g>
	<g>
		<g>
			<rect x="77.25" y="143.774" fill-rule="evenodd" clip-rule="evenodd" width="33.125" height="33.125"/>
		</g>
	</g>
	<g>
		<g>
			<rect x="110.375" y="176.899" fill-rule="evenodd" clip-rule="evenodd" width="33.125" height="33.125"/>
		</g>
	</g>
	<g>
		<g>
			<path fill-rule="evenodd" clip-rule="evenodd" d="M143.5,210.024v33.125h33.125v-33.125H143.5z M160,232.274
				c-2.762,0-5-2.238-5-5s2.238-5,5-5s5,2.238,5,5S162.762,232.274,160,232.274z"/>
		</g>
	</g>
	<g>
		<g>
			<rect x="44.125" y="176.899" fill-rule="evenodd" clip-rule="evenodd" width="33.125" height="33.125"/>
		</g>
	</g>
	<g>
		<g>
			<rect x="77.25" y="210.024" fill-rule="evenodd" clip-rule="evenodd" width="33.125" height="33.125"/>
		</g>
	</g>
	<g>
		<g>
			<rect x="110.375" y="44.399" fill-rule="evenodd" clip-rule="evenodd" width="33.125" height="33.125"/>
		</g>
	</g>
	<g>
		<g>
			<path fill-rule="evenodd" clip-rule="evenodd" d="M176.625,110.649V77.524H143.5v33.125H176.625z M160,89.274
				c2.762,0,5,2.238,5,5s-2.238,5-5,5s-5-2.238-5-5S157.238,89.274,160,89.274z"/>
		</g>
	</g>
	<g>
		<g>
			<path fill-rule="evenodd" clip-rule="evenodd" d="M176.625,143.774h33.125v-33.125h-33.125V143.774z M195,122.274
				c2.762,0,5,2.238,5,5s-2.238,5-5,5s-5-2.238-5-5S192.238,122.274,195,122.274z"/>
		</g>
	</g>
	<g>
		<g>
			<rect x="209.75" y="143.774" fill-rule="evenodd" clip-rule="evenodd" width="33.125" height="33.125"/>
		</g>
	</g>
	<g>
		<g>
			<rect x="176.625" y="44.399" fill-rule="evenodd" clip-rule="evenodd" width="33.125" height="33.125"/>
		</g>
	</g>
	<g>
		<g>
			<rect x="209.75" y="77.524" fill-rule="evenodd" clip-rule="evenodd" width="33.125" height="33.125"/>
		</g>
	</g>
	<g>
		<g>
			<circle fill-rule="evenodd" clip-rule="evenodd" cx="160.25" cy="126.524" r="9.25"/>
		</g>
	</g>
	<g>
		<g>
			<circle fill-rule="evenodd" clip-rule="evenodd" cx="61" cy="27.274" r="5"/>
		</g>
	</g>
	<g>
		<g>
			<circle fill-rule="evenodd" clip-rule="evenodd" cx="94" cy="61.274" r="5"/>
		</g>
	</g>
	<g>
		<g>
			<circle fill-rule="evenodd" clip-rule="evenodd" cx="127" cy="94.274" r="5"/>
		</g>
	</g>
	<g>
		<g>
			<circle fill-rule="evenodd" clip-rule="evenodd" cx="160" cy="61.274" r="5"/>
		</g>
	</g>
	<g>
		<g>
			<circle fill-rule="evenodd" clip-rule="evenodd" cx="195" cy="94.274" r="5"/>
		</g>
	</g>
	<g>
		<g>
			<circle fill-rule="evenodd" clip-rule="evenodd" cx="194" cy="161.274" r="5"/>
		</g>
	</g>
	<g>
		<g>
			<circle fill-rule="evenodd" clip-rule="evenodd" cx="127" cy="160.274" r="5"/>
		</g>
	</g>
	<g>
		<g>
			<circle fill-rule="evenodd" clip-rule="evenodd" cx="161" cy="193.274" r="5"/>
		</g>
	</g>
	<g>
		<g>
			<circle fill-rule="evenodd" clip-rule="evenodd" cx="160" cy="260.274" r="5"/>
		</g>
	</g>
	<g>
		<g>
			<circle fill-rule="evenodd" clip-rule="evenodd" cx="27" cy="261.274" r="5"/>
		</g>
	</g>
	<g>
		<g>
			<circle fill-rule="evenodd" clip-rule="evenodd" cx="60" cy="227.274" r="5"/>
		</g>
	</g>
	<g>
		<g>
			<circle fill-rule="evenodd" clip-rule="evenodd" cx="94" cy="194.274" r="5"/>
		</g>
	</g>
	<g>
		<g>
			<circle fill-rule="evenodd" clip-rule="evenodd" cx="94.5" cy="128.774" r="5"/>
		</g>
	</g>
	<g>
		<g>
			<circle fill-rule="evenodd" clip-rule="evenodd" cx="226.5" cy="127.774" r="5"/>
		</g>
	</g>
	<g>
		<g>
			<circle fill-rule="evenodd" clip-rule="evenodd" cx="226.5" cy="60.774" r="5"/>
		</g>
	</g>
	<g>
		<g>
			<circle fill-rule="evenodd" clip-rule="evenodd" cx="260.5" cy="27.774" r="5"/>
		</g>
	</g>
	<g>
		<g>
			<circle fill-rule="evenodd" clip-rule="evenodd" cx="260.5" cy="226.774" r="5"/>
		</g>
	</g>
	<g>
		<g>
			<circle fill-rule="evenodd" clip-rule="evenodd" cx="227.5" cy="193.774" r="5"/>
		</g>
	</g>
	<g>
		<g>
			<circle fill-rule="evenodd" clip-rule="evenodd" cx="27" cy="128.274" r="5"/>
		</g>
	</g>
</g>
</svg>
